# Blender v2.80 (sub 75) OBJ File: ''
# www.blender.org
mtllib RoomPart1.mtl
o Cube_Cube.001
v -1.290438 -0.395028 1.290438
v -1.290438 -0.395028 -1.290438
v 1.290438 -0.395028 1.290438
v 1.290438 -0.395028 -1.290438
v 0.000000 -0.395028 -1.290438
v 0.000000 -0.395028 1.290438
v -1.290438 -0.395028 0.000000
v 1.290438 -0.395028 0.000000
v 0.000000 -0.395028 0.000000
v -1.290438 -0.379147 0.000000
v -1.290438 -0.379147 -1.290438
v 0.000000 -0.379147 -1.290438
v 1.290438 -0.379147 -1.290438
v 1.290438 -0.379147 0.000000
v 1.290438 -0.379147 1.290438
v 0.000000 -0.379147 1.290438
v -1.290438 -0.379147 1.290438
v 0.000000 -0.379147 0.000000
vt 0.000100 0.000100
vt 0.000100 0.999900
vt 0.999900 0.999900
vt 0.999900 0.000100
vt 0.000100 0.000100
vt 0.000100 0.999900
vt 0.999900 0.999900
vt 0.999900 0.000100
vt 0.000100 0.000100
vt 0.000100 0.999900
vt 0.999900 0.999900
vt 0.999900 0.000100
vt 0.000100 0.000100
vt 0.000100 0.999900
vt 0.999900 0.999900
vt 0.999900 0.000100
vt 0.000100 0.000100
vt 0.999900 0.000100
vt 0.999900 0.999900
vt 0.000100 0.999900
vt 0.000100 0.000100
vt 0.999900 0.000100
vt 0.999900 0.999900
vt 0.000100 0.999900
vt 0.000100 0.000100
vt 0.999900 0.000100
vt 0.999900 0.999900
vt 0.000100 0.999900
vt 0.000100 0.000100
vt 0.999900 0.000100
vt 0.999900 0.999900
vt 0.000100 0.999900
vn 0.0000 -1.0000 0.0000
vn 0.0000 1.0000 0.0000
vn 0.0000 0.0000 1.0000
vn 0.0000 0.0000 -1.0000
vn 1.0000 0.0000 0.0000
vn -1.0000 0.0000 0.0000
usemtl SOS
s off
f 9/1/1 6/2/1 1/3/1 7/4/1
f 8/5/1 3/6/1 6/7/1 9/8/1
f 4/9/1 8/10/1 9/11/1 5/12/1
f 5/13/1 9/14/1 7/15/1 2/16/1
f 18/17/2 10/18/2 17/19/2 16/20/2
f 14/21/2 18/22/2 16/23/2 15/24/2
f 13/25/2 12/26/2 18/27/2 14/28/2
f 12/29/2 11/30/2 10/31/2 18/32/2
f 6/7/3 3/6/3 15/24/3 16/23/3
f 1/3/3 6/2/3 16/20/3 17/19/3
f 4/9/4 5/12/4 12/26/4 13/25/4
f 8/10/5 4/9/5 13/25/5 14/28/5
f 5/13/4 2/16/4 11/30/4 12/29/4
f 3/6/5 8/5/5 14/21/5 15/24/5
f 2/16/6 7/15/6 10/31/6 11/30/6
f 7/4/6 1/3/6 17/19/6 10/18/6
